<?xml version="1.0" encoding="utf-8"?>
<!-- Generator: Adobe Illustrator 17.0.0, SVG Export Plug-In . SVG Version: 6.00 Build 0)  -->
<!DOCTYPE svg PUBLIC "-//W3C//DTD SVG 1.1//EN" "http://www.w3.org/Graphics/SVG/1.1/DTD/svg11.dtd">
<svg version="1.1" id="Forma_1_1_" xmlns="http://www.w3.org/2000/svg" xmlns:xlink="http://www.w3.org/1999/xlink" x="0px" y="0px"
	 width="19px" height="18px" viewBox="0 0 19 18" enable-background="new 0 0 19 18" xml:space="preserve">
<g id="Forma_1">
	<g>
		<path fill-rule="evenodd" clip-rule="evenodd" fill="#B7B7B7" d="M16.031,1.2h-2.375V0.6c0-0.36-0.237-0.6-0.594-0.6
			s-0.594,0.24-0.594,0.6v0.6H6.531V0.6c0-0.36-0.238-0.6-0.594-0.6S5.344,0.24,5.344,0.6v0.6H2.969C1.306,1.2,0,2.52,0,4.2V15
			c0,1.68,1.306,3,2.969,3h13.062C17.694,18,19,16.68,19,15V4.2C19,2.52,17.694,1.2,16.031,1.2z M17.812,15
			c0,0.96-0.831,1.8-1.781,1.8H2.969c-0.95,0-1.781-0.84-1.781-1.8V7.2h16.625V15z M17.813,6H1.188V4.2c0-0.96,0.831-1.8,1.781-1.8
			h2.375V3c0,0.36,0.237,0.6,0.594,0.6c0.356,0,0.594-0.24,0.594-0.6V2.4h5.938V3c0,0.36,0.237,0.6,0.594,0.6
			c0.356,0,0.594-0.24,0.594-0.6V2.4h2.375c0.95,0,1.781,0.84,1.781,1.8V6z M4.156,15c0.356,0,0.594-0.12,0.831-0.36
			c0.237-0.24,0.356-0.6,0.356-0.84c0-0.24-0.119-0.6-0.356-0.84c-0.475-0.48-1.187-0.48-1.663,0c-0.237,0.24-0.356,0.48-0.356,0.84
			c0,0.24,0.119,0.6,0.356,0.84C3.562,14.88,3.8,15,4.156,15z M4.156,11.4c0.356,0,0.594-0.12,0.831-0.36
			c0.237-0.24,0.356-0.6,0.356-0.84c0-0.24-0.119-0.6-0.356-0.84c-0.475-0.48-1.187-0.48-1.663,0C3.088,9.6,2.969,9.84,2.969,10.2
			c0,0.36,0.119,0.6,0.356,0.84C3.562,11.28,3.8,11.4,4.156,11.4z M7.719,15c0.356,0,0.594-0.12,0.831-0.36
			c0.238-0.24,0.356-0.6,0.356-0.84c0-0.24-0.119-0.6-0.356-0.84c-0.475-0.48-1.187-0.48-1.662,0c-0.238,0.24-0.356,0.6-0.356,0.84
			c0,0.24,0.119,0.6,0.356,0.84C7.125,14.88,7.363,15,7.719,15z M7.719,11.4c0.356,0,0.594-0.12,0.831-0.36
			c0.238-0.24,0.356-0.6,0.356-0.84c0-0.24-0.119-0.6-0.356-0.84c-0.475-0.48-1.187-0.48-1.662,0C6.65,9.6,6.531,9.96,6.531,10.2
			c0,0.24,0.119,0.6,0.356,0.84C7.125,11.28,7.363,11.4,7.719,11.4z M11.281,15c0.356,0,0.594-0.12,0.831-0.36
			s0.356-0.48,0.356-0.84s-0.119-0.6-0.356-0.84c-0.475-0.48-1.188-0.48-1.663,0c-0.237,0.24-0.356,0.6-0.356,0.84
			c0,0.24,0.119,0.6,0.356,0.84S10.925,15,11.281,15z M11.281,11.4c0.356,0,0.594-0.12,0.831-0.36c0.237-0.24,0.356-0.48,0.356-0.84
			c0-0.24-0.119-0.6-0.356-0.84c-0.475-0.48-1.188-0.48-1.663,0c-0.237,0.24-0.356,0.6-0.356,0.84c0,0.24,0.119,0.6,0.356,0.84
			C10.687,11.28,10.925,11.4,11.281,11.4z M14.844,15c0.356,0,0.594-0.12,0.831-0.36s0.356-0.6,0.356-0.84
			c0-0.24-0.119-0.6-0.356-0.84c-0.475-0.48-1.188-0.48-1.663,0c-0.237,0.24-0.356,0.48-0.356,0.84c0,0.24,0.119,0.6,0.356,0.84
			S14.487,15,14.844,15z M14.844,11.4c0.356,0,0.594-0.12,0.831-0.36c0.237-0.24,0.356-0.48,0.356-0.84c0-0.24-0.119-0.6-0.356-0.84
			c-0.475-0.48-1.188-0.48-1.663,0c-0.237,0.24-0.356,0.6-0.356,0.84c0,0.24,0.119,0.6,0.356,0.84
			C14.25,11.28,14.487,11.4,14.844,11.4z"/>
	</g>
</g>
</svg>
